<mxfile host="app.diagrams.net" modified="2024-03-09T12:31:19.044Z" agent="Mozilla/5.0 (Windows NT 10.0; Win64; x64; rv:123.0) Gecko/20100101 Firefox/123.0" version="24.0.3" etag="q4u360W1V5smI-nlFZN_" type="github">
  <diagram name="Strona-1" id="Gti32nbxZxRfbR2i_--W">
    <mxGraphModel>
      <root>
        <mxCell id="0" />
        <mxCell id="1" parent="0" />
      </root>
    </mxGraphModel>
  </diagram>
</mxfile>
